/* XPM */
static char * closeButton_xpm[] = {
"16 16 8 1",
" 	c None",
".	c #FFFFFF",
"+	c #EFD7D7",
"@	c #C57272",
"#	c #F5E9E9",
"$	c #970000",
"%	c #A92D2D",
"&	c #A72929",
"                ",
"                ",
"    .      .    ",
"   +@#    #@+   ",
"  .@$%#  #%$@.  ",
"   #%$%##%$%#   ",
"    #%$&&$%#    ",
"     #&$$&#     ",
"     #&$$&#     ",
"    #%$&&$%#    ",
"   #%$%##%$%#   ",
"  .@$%#  #%$@.  ",
"   +@#    #@+   ",
"    .      .    ",
"                ",
"                "};
