/* XPM */
static char * fvwmLogo_xpm[] = {
"16 16 93 2",
"  	c None",
". 	c #F7F9FB",
"+ 	c #F2F6F9",
"@ 	c #F5F9FB",
"# 	c #FFFFFF",
"$ 	c #F3F7FA",
"% 	c #B5CEDF",
"& 	c #F4F8FA",
"* 	c #C3D9E7",
"= 	c #F6F9FB",
"- 	c #F5F8FB",
"; 	c #347AA9",
"> 	c #6A9EC0",
", 	c #8CB8D2",
"' 	c #2177A9",
") 	c #F1F6F9",
"! 	c #F7FAFC",
"~ 	c #317BAB",
"{ 	c #82AFCC",
"] 	c #4388B3",
"^ 	c #DFEBF2",
"/ 	c #F4F8FB",
"( 	c #F0F6F9",
"_ 	c #5A9AC0",
": 	c #74ABCB",
"< 	c #2C80B1",
"[ 	c #EFF5F9",
"} 	c #F8FBFC",
"| 	c #2E7CAD",
"1 	c #FBFCFD",
"2 	c #C5DBE9",
"3 	c #3885B3",
"4 	c #AACBDF",
"5 	c #F3F8FB",
"6 	c #D2E4EE",
"7 	c #3F8DB9",
"8 	c #ACCEE1",
"9 	c #4B96BF",
"0 	c #EEF5F9",
"a 	c #3081B1",
"b 	c #FCFDFE",
"c 	c #ECF3F8",
"d 	c #5198BF",
"e 	c #6DA9CA",
"f 	c #9AC4DB",
"g 	c #4492BD",
"h 	c #DCEBF3",
"i 	c #F2F8FB",
"j 	c #F4F9FB",
"k 	c #4A98C2",
"l 	c #F1F7FA",
"m 	c #3286B4",
"n 	c #FAFCFD",
"o 	c #F6FAFC",
"p 	c #7DB4D2",
"q 	c #67A8CB",
"r 	c #489AC3",
"s 	c #F5F9FC",
"t 	c #F7FBFC",
"u 	c #348AB8",
"v 	c #EAF3F8",
"w 	c #F9FCFD",
"x 	c #3794C1",
"y 	c #388FBC",
"z 	c #D2E6F0",
"A 	c #298FC0",
"B 	c #4A9CC5",
"C 	c #B5D7E8",
"D 	c #E4F1F7",
"E 	c #3196C6",
"F 	c #FEFEFF",
"G 	c #AED4E6",
"H 	c #86C0DA",
"I 	c #F3F9FB",
"J 	c #F6FBFD",
"K 	c #B7DCEC",
"L 	c #77BDDB",
"M 	c #4FA5CD",
"N 	c #E8F3F8",
"O 	c #48A8D1",
"P 	c #E0F0F7",
"Q 	c #BFDFEE",
"R 	c #5EB0D4",
"S 	c #F7FBFD",
"T 	c #F4FAFC",
"U 	c #86C7E2",
"V 	c #94CEE6",
"W 	c #F3F9FC",
"X 	c #F5FAFD",
"Y 	c #D0E9F3",
"Z 	c #F3FAFC",
"` 	c #D9EDF6",
" .	c #FCFEFE",
"                                ",
"  . +                     @ #   ",
"  $ % &                 $ * =   ",
"  - ; > &             @ , ' )   ",
"  ! ~ { ] ^ /       ( _ : < [   ",
"  } | 1 2 3 4 @ 5 6 7 8 # 9 0   ",
"  } a b @ c d e f g h i j k l   ",
"  } m n     o p q j     i r s   ",
"  t u v       s o       w x w   ",
"  ! y z                 w A b   ",
"  j B C                 D E F   ",
"  o G H I             J K L i   ",
"    o M N             J O P     ",
"      Q R S         T U V W     ",
"      X Y X         Z ` J       ",
"         .                      "};
