/* XPM */
static char * minimizeButton_xpm[] = {
"16 16 4 1",
" 	c None",
".	c #FFFFFF",
"+	c #44AE31",
"@	c #179B00",
"                ",
"                ",
"                ",
"                ",
"                ",
"                ",
"                ",
"                ",
"                ",
"   ........     ",
"  .+@@@@@@+.    ",
"  .@@@@@@@@.    ",
"  .+@@@@@@+.    ",
"   ........     ",
"                ",
"                "};
