/* XPM */
static char * radioButtonNorm_xpm[] = {
"16 16 8 1",
" 	c None",
".	c #FFFFFF",
"+	c #EFEFEF",
"@	c #E1E1E1",
"#	c #D7D7D7",
"$	c #FBFBFB",
"%	c #DFDFDF",
"&	c #D2D2D2",
"     ......     ",
"    ........    ",
"  ...+@##@+...  ",
"  .$%&&&&&&%$.  ",
" ..%&&&&&&&&%.. ",
"..+&&&&&&&&&&+..",
"..@&&&&&&&&&&@..",
"..#&&&&&&&&&&#..",
"..#&&&&&&&&&&#..",
"..@&&&&&&&&&&@..",
"..+&&&&&&&&&&+..",
" ..%&&&&&&&&%.. ",
"  .$%&&&&&&%$.  ",
"  ...+@##@+...  ",
"    ........    ",
"     ......     "};
