/* XPM */
static char * runButton_xpm[] = {
"16 16 13 1",
" 	c None",
".	c #FFFFFF",
"+	c #F3F7FF",
"@	c #F9FAFF",
"#	c #AABDFF",
"$	c #F2F6FF",
"%	c #FBFCFF",
"&	c #7091FF",
"*	c #3C68FF",
"=	c #C0CEFF",
"-	c #809DFF",
";	c #3865FF",
">	c #003AFF",
"                ",
"                ",
"       .        ",
"       +@       ",
"       +#$      ",
"   ....%&*$     ",
"  .=----;>*$    ",
"  .->>>>>>>*$   ",
"  .->>>>>>>*$   ",
"  .=----;>*$    ",
"   ....%&*$     ",
"       +#$      ",
"       +@       ",
"       .        ",
"                ",
"                "};
