/* XPM */
static char * undefinedLarge_xpm[] = {
"48 48 227 2",
"  	c None",
". 	c #879CAA",
"+ 	c #CBD5DB",
"@ 	c #D3DBE1",
"# 	c #CFD8DE",
"$ 	c #CED7DE",
"% 	c #CDD6DD",
"& 	c #CCD5DD",
"* 	c #CBD4DC",
"= 	c #C9D3DB",
"- 	c #C8D2DA",
"; 	c #C7D1D9",
"> 	c #C6D0D9",
", 	c #C5CFD8",
"' 	c #C3CED7",
") 	c #C2CDD6",
"! 	c #C1CCD6",
"~ 	c #C0CBD5",
"{ 	c #BFCAD5",
"] 	c #BDC9D4",
"^ 	c #BCC8D3",
"/ 	c #BBC7D2",
"( 	c #B9C6D1",
"_ 	c #B8C5D0",
": 	c #B9C5D1",
"< 	c #BAC6D2",
"[ 	c #BDC8D3",
"} 	c #BEC9D4",
"| 	c #BFCAD4",
"1 	c #C6CFD8",
"2 	c #E0E6EF",
"3 	c #A7B6C1",
"4 	c #F2F5F8",
"5 	c #FEFFFF",
"6 	c #F9FBFF",
"7 	c #F7FAFE",
"8 	c #F4F8FD",
"9 	c #F2F6FB",
"0 	c #F0F3F9",
"a 	c #EEF2F8",
"b 	c #ECF0F6",
"c 	c #E9EEF5",
"d 	c #E7ECF4",
"e 	c #E5EAF3",
"f 	c #E2E8F2",
"g 	c #DFE6EF",
"h 	c #DDE5EE",
"i 	c #DBE3ED",
"j 	c #D9E1EC",
"k 	c #D7DEEB",
"l 	c #D4DDE9",
"m 	c #D2DBE8",
"n 	c #CFD9E5",
"o 	c #CED8E4",
"p 	c #CED8E5",
"q 	c #D1DAE6",
"r 	c #D6DDE9",
"s 	c #D8DFEA",
"t 	c #D9E1EB",
"u 	c #DDE4EE",
"v 	c #FFFFFF",
"w 	c #7B7C7D",
"x 	c #CCCED0",
"y 	c #CCCDCF",
"z 	c #CDCED0",
"A 	c #CFCFD0",
"B 	c #CFCFD2",
"C 	c #D0D0D3",
"D 	c #D1D2D4",
"E 	c #D2D3D4",
"F 	c #D2D3D5",
"G 	c #D3D4D6",
"H 	c #D4D5D7",
"I 	c #D5D6D7",
"J 	c #D5D6D8",
"K 	c #D6D8D8",
"L 	c #D6D8D9",
"M 	c #D8D9DA",
"N 	c #D8D9DB",
"O 	c #D9DADB",
"P 	c #D9DADC",
"Q 	c #DADBDD",
"R 	c #DBDCDD",
"S 	c #DBDCDE",
"T 	c #DCDDDE",
"U 	c #DCDDDF",
"V 	c #DDDEDF",
"W 	c #DEDFE0",
"X 	c #DFE0E1",
"Y 	c #E0E1E2",
"Z 	c #E0E1E3",
"` 	c #E1E2E4",
" .	c #E2E3E5",
"..	c #E2E4E5",
"+.	c #E3E4E6",
"@.	c #E4E5E6",
"#.	c #E9EAEB",
"$.	c #F5F5F5",
"%.	c #F4F4F5",
"&.	c #F4F5F5",
"*.	c #F5F5F6",
"=.	c #F5F6F6",
"-.	c #F6F6F6",
";.	c #F6F6F7",
">.	c #F6F7F7",
",.	c #F7F7F7",
"'.	c #F7F7F8",
").	c #F7F8F8",
"!.	c #F8F8F8",
"~.	c #F8F8F9",
"{.	c #F8F9F9",
"].	c #F9F9F9",
"^.	c #FBFBFB",
"/.	c #FFFFFE",
"(.	c #FFFEFE",
"_.	c #FFFCFE",
":.	c #FDFDFF",
"<.	c #FEFEFE",
"[.	c #FEFFFE",
"}.	c #FEFEFF",
"|.	c #FEFDFE",
"1.	c #FEFEFC",
"2.	c #FFFEFF",
"3.	c #FDFDFC",
"4.	c #FDFFFE",
"5.	c #FBFCFC",
"6.	c #FDFEFE",
"7.	c #FCFDFC",
"8.	c #FDFEFD",
"9.	c #FDFCFD",
"0.	c #FAF9FC",
"a.	c #FEFEFD",
"b.	c #FFFEFD",
"c.	c #FDFDFD",
"d.	c #FBFDFD",
"e.	c #FBFBFC",
"f.	c #FDFDFE",
"g.	c #F9FBF9",
"h.	c #FAFBFA",
"i.	c #FBFBF9",
"j.	c #FDFCFC",
"k.	c #FCFDFD",
"l.	c #FAFDFB",
"m.	c #FAFBFC",
"n.	c #FEFDFD",
"o.	c #FCFCFD",
"p.	c #FAFDFC",
"q.	c #FCFBFB",
"r.	c #FAFAF9",
"s.	c #FCFCFC",
"t.	c #FBFCFB",
"u.	c #FAFCFC",
"v.	c #FBFCFA",
"w.	c #F9FBFC",
"x.	c #F7F8F9",
"y.	c #FEFDFF",
"z.	c #FAFAFB",
"A.	c #FBFAFB",
"B.	c #F9F8F8",
"C.	c #FBFDFC",
"D.	c #FAFBFB",
"E.	c #FBF9FB",
"F.	c #F9F6FA",
"G.	c #FDFEFC",
"H.	c #FAFCFB",
"I.	c #FAFAFA",
"J.	c #F9FAFA",
"K.	c #FDFEFF",
"L.	c #F9FBFA",
"M.	c #F9FAF9",
"N.	c #FCFEFE",
"O.	c #FCFEFD",
"P.	c #FCFCFB",
"Q.	c #FAF9FA",
"R.	c #F8F9FA",
"S.	c #F9FAFB",
"T.	c #F9F9FA",
"U.	c #FCFBFC",
"V.	c #FBFEFD",
"W.	c #FBFCFD",
"X.	c #F9FBFB",
"Y.	c #FAF9F9",
"Z.	c #F8F9F8",
"`.	c #F9F7F9",
" +	c #E2EAEF",
".+	c #DBE7ED",
"++	c #DAE6EC",
"@+	c #D4E6EF",
"#+	c #D1E6F0",
"$+	c #CFE4EE",
"%+	c #CDE3ED",
"&+	c #CBE1EC",
"*+	c #CAE0EB",
"=+	c #C8DEEA",
"-+	c #C6DDE9",
";+	c #C4DBE8",
">+	c #C2DAE7",
",+	c #C1D9E6",
"'+	c #BFD7E5",
")+	c #BDD5E4",
"!+	c #BCD4E3",
"~+	c #BAD3E2",
"{+	c #B8D1E1",
"]+	c #B6D0DF",
"^+	c #B7CEDC",
"/+	c #BBCCDA",
"(+	c #BDCEDB",
"_+	c #C0CEDA",
":+	c #C6CED8",
"<+	c #C7D0D9",
"[+	c #C8D1DA",
"}+	c #C9D2DB",
"|+	c #CBD3DD",
"1+	c #CDD5DD",
"2+	c #CFD6DE",
"3+	c #D0D7DF",
"4+	c #D2D8E0",
"5+	c #D4DAE1",
"6+	c #D5DBE1",
"7+	c #D7DCE2",
"8+	c #D9DEE3",
"9+	c #D9DFE5",
"0+	c #DBE0E6",
"a+	c #DDE1E7",
"b+	c #DEE2E7",
"c+	c #EBEDF0",
"d+	c #BBC6CF",
"                                                                                                ",
"                                                                                                ",
"                                                                                                ",
"    . . . . . . . . . . . . . . . . . . . . . . . . . . . . . . . . . . . . . . . . . . . .     ",
"  . + @ # $ % & * = - ; > , ' ) ! ~ { ] ^ / ( _ : < / [ } | ~ ! ) 1 1 . 2 2 . 2 2 . 2 2 . 3 .   ",
"  . 4 5 6 7 8 9 0 a b c d e f g h i j k l m n o p q m r s t i u g 2 2 . . . . . . . . . . v .   ",
"  . v v v v v v v v v v v v v v v v v v v v v v v v v v v v v v v v v v v v v v v v v v v v .   ",
"  . v w w w w w w w w w w w w w w w w w w w w w w w w w w w w w w w w w w w w w w w w w w v .   ",
"  . v w x y z A B C C D D E F G G H I J K L M N O P Q R S T U V W W X X Y Z `  ...+.@.#.w v .   ",
"  . v w $.%.&.$.$.$.$.$.*.*.*.=.-.-.-.-.-.;.;.;.>.>.,.,.'.'.'.).!.!.!.!.!.~.~.{.{.].].^.w v .   ",
"  . v w v v v v v v v v v v v v v v v v v v v v v v v v v v v v v v v v v v v v v v v v w v .   ",
"  . v w v v v v v v v v v v v v v v v v v v v v v v v v v v v v v v v v v v v v v v v v w v .   ",
"  . v w v v v v v v v v v v v v v v v v v v v v v v v v v v v v v v v v v v v v v v v v w v .   ",
"  . v w v v v v v v v v v v v v v v v v v v v v v v v v v v v v v v v v v v v v v v v v w v .   ",
"  . v w v v v v v v v v v v v v v v v v v v v v v v v v v v v v v v v v v v v v v v v v w v .   ",
"  . v w v v v v v v v v v v v v v v v v v v v v v v v v v v v v v v v v v v v v v v v v w v .   ",
"  . v w v v v v v v v v v v v v v v v v v v v v v v v v v v v v v v v v v v v v v v v v w v .   ",
"  . v w v v v v v v v v v v v v v v v v v v v v v v v v v v v v v v v v v v v v v v /.v w v .   ",
"  . v w v v v v v v v v v v v v v v v v v v v v v v v v v v v v v v v v v v v v (.(._.v w v .   ",
"  . v w v v v v v v v v v v v v v v v v v v v v v v v v v v v v v v v v v v v v /.:.<.v w v .   ",
"  . v w v v v v v v v v v v v v v v v v v v v v v v v v v v v v v v v v v v v [.}./.<.v w v .   ",
"  . v w v v v v v v v v v v v v v v v v v v v v v v v v v v v v v v v v v v v (./.|.1.v w v .   ",
"  . v w v v v v v v v v v v v v v v v v v v v v v v v v v v v v v 5 v 5 v 2.v |./.<.3.v w v .   ",
"  . v w v v v v v v v v v v v v v v v v v v v v v v v v v v v v v v v v v /.v /./.4.5.v w v .   ",
"  . v w v v v v v v v v v v v v v v v v v v v v v v v v v v v v v v v v 5 5 5 <.4.6.7.v w v .   ",
"  . v w v v v v v v v v v v v v v 5 5 5 5 v v v v 5 5 }.<.<.(.[.[.}.<.<.6.6.6.8.6.9.0.v w v .   ",
"  . v w v v v v v v v v v v v v [.5 }.}.5 5 }.<.<.<.a.a.a.b.<.<.<.<.<.6.<.<.6.c.d.^.e.v w v .   ",
"  . v w v v v v v v v /.v v /.5 <.<.<.<.<.<.8.8.8.8.8.a.8.a.8.8.6.8.c.c.3.f.7.3.g.h.i.v w v .   ",
"  . v w v v v 2./.v (.2././.(.<.a.a.a.<.|.c.c.c.8.8.8.8.8.8.8.8.c.c.c.c.c.j.k.3.l.m.!.v w v .   ",
"  . v w v v v v v 2.5 5 <.<.<.|.<.n.n.n.n.3.3.3.3.3.3.3.3.k.7.k.3.o.k.k.k.o.o.p.q.r.].v w v .   ",
"  . v w v v 5 v v 5 5 <.|.|.c.c.c.3.7.7.7.7.7.7.s.s.k.s.o.o.o.o.o.o.s.s.s.s.t.u.v.w.x.v w v .   ",
"  . v w v v v v v }.<.y.}.|.6.c.c.3.3.c.7.7.7.s.s.s.s.o.s.s.s.5.5.5.5.5.5.e.^.e.z.A.B.v w v .   ",
"  . v w v v 5 5 5 5 }.2.y.6.f.|.9.k.d.k.C.5.C.t.^.^.e.e.t.e.e.^.m.e.e.^.D.^.D.^.E.D.F.v w v .   ",
"  . v w v v v v v v v 5 }.a.G.G.7.5.5.5.C.H.u.m.D.e.^.^.A.A.z.D.z.z.I.I.I.J.h.I.I.J.r.v w v .   ",
"  . v w v v v v v v 2.<.K.8.6.G.3.k.C.C.t.D.^.D.h.h.h.h.I.I.h.h.L.I.I.I.I.I.J.I.r.].M.v w v .   ",
"  . v w N.}.<.}.<.4.[.4.6.8.8.O.k.5.P.t.^.D.z.I.I.I.J.I.I.I.J.J.Q.J.J.J.J.J.J.R.M.S.T.5 w v .   ",
"  . v w ^.U.o.d.V.d.d.k.c.d.W.e.^.D.D.X.X.J.S.J.T.J.I.I.I.J.I.I.r.Y.Y.Y.M.].{.M.{.Z.`.<.w v .   ",
"  . v w k.h.^.^.^.^.^.^.^.^.^.^.P.P.P.P.P.P.s.s.s.s.P.P.P.P.P.P.^.^.^.^.^.^.^.^.^.^.^.v w v .   ",
"  . v w w w w w w w w w w w w w w w w w w w w w w w w w w w w w w w w w w w w w w w w w w v .   ",
"  . v  +.+++@+#+$+%+&+*+=+-+;+>+,+'+)+!+~+{+]+^+/+(+_+:+<+[+}+|+1+2+3+4+5+6+7+8+9+0+a+b+c+d+.   ",
"    . . . . . . . . . . . . . . . . . . . . . . . . . . . . . . . . . . . . . . . . . . . .     ",
"                                                                                                ",
"                                                                                                ",
"                                                                                                ",
"                                                                                                ",
"                                                                                                ",
"                                                                                                ",
"                                                                                                "};
