/* XPM */
static char * closeButtonGrey_xpm[] = {
"16 16 2 1",
" 	c None",
".	c #333333",
"                ",
"                ",
"                ",
"    .      .    ",
"   ...    ...   ",
"    ...  ...    ",
"     ......     ",
"      ....      ",
"      ....      ",
"     ......     ",
"    ...  ...    ",
"   ...    ...   ",
"    .      .    ",
"                ",
"                ",
"                "};
