/* XPM */
static char * maximizeButton_xpm[] = {
"16 16 7 1",
" 	c None",
".	c #FFFFFF",
"+	c #2F3FAD",
"@	c #00149B",
"#	c #A3A5B4",
"$	c #B7B7B7",
"%	c #2A3AA8",
"                ",
"                ",
"   ..........   ",
"  .+@@@@@@@@+.  ",
"  .@@@@@@@@@@.  ",
"  .@@@@@@@@@@.  ",
"  .@#$$$$$$#@.  ",
"  .@$$$$$$$$@.  ",
"  .@$$$$$$$$@.  ",
"  .@$$$$$$$$@.  ",
"  .@$$$$$$$$@.  ",
"  .@#$$$$$$#@.  ",
"  .%@@@@@@@@%.  ",
"   ..........   ",
"                ",
"                "};
