/* XPM */
static char * radioButtonSel_xpm[] = {
"16 16 13 1",
" 	c None",
".	c #FFFFFF",
"+	c #EFEFEF",
"@	c #E1E1E1",
"#	c #D7D7D7",
"$	c #FBFBFB",
"%	c #DFDFDF",
"&	c #D2D2D2",
"*	c #BDBDBD",
"=	c #494949",
"-	c #151515",
";	c #111111",
">	c #000000",
"     ......     ",
"    ........    ",
"  ...+@##@+...  ",
"  .$%&&&&&&%$.  ",
" ..%&*=--=*&%.. ",
"..+&*;>>>>;*&+..",
"..@&=>>>>>>=&@..",
"..#&->>>>>>-&#..",
"..#&->>>>>>-&#..",
"..@&=>>>>>>=&@..",
"..+&*;>>>>;*&+..",
" ..%&*=--=*&%.. ",
"  .$%&&&&&&%$.  ",
"  ...+@##@+...  ",
"    ........    ",
"     ......     "};
