/* XPM */
static char * terminal_xpm[] = {
"16 16 98 2",
"  	c None",
". 	c #B1B3B3",
"+ 	c #AEAFB0",
"@ 	c #B2B2B3",
"# 	c #B5B5B6",
"$ 	c #B8B8B9",
"% 	c #BBBBBC",
"& 	c #BEBEBE",
"* 	c #BFC0C0",
"= 	c #C0C1C1",
"- 	c #C2C2C2",
"; 	c #C2C2C3",
"> 	c #C5C5C5",
", 	c #BFBFBF",
"' 	c #B5B7B7",
") 	c #B2B4B4",
"! 	c #020202",
"~ 	c #101010",
"{ 	c #0F0F0F",
"] 	c #0E0E0E",
"^ 	c #0D0D0D",
"/ 	c #0C0C0C",
"( 	c #0B0B0B",
"_ 	c #080808",
": 	c #B3B5B5",
"< 	c #000000",
"[ 	c #737373",
"} 	c #999999",
"| 	c #676767",
"1 	c #4B4B4B",
"2 	c #484848",
"3 	c #464646",
"4 	c #434343",
"5 	c #444444",
"6 	c #323232",
"7 	c #0A0A0A",
"8 	c #B4B6B6",
"9 	c #616161",
"0 	c #A5A5A5",
"a 	c #707070",
"b 	c #3C3C3C",
"c 	c #404040",
"d 	c #3D3D3D",
"e 	c #3B3B3B",
"f 	c #393939",
"g 	c #1C1C1C",
"h 	c #B5B6B6",
"i 	c #454545",
"j 	c #383838",
"k 	c #5F5F5F",
"l 	c #353535",
"m 	c #2B2B2B",
"n 	c #2C2C2C",
"o 	c #363636",
"p 	c #373737",
"q 	c #292929",
"r 	c #131313",
"s 	c #111111",
"t 	c #B6B8B8",
"u 	c #2F2F2F",
"v 	c #3E3E3E",
"w 	c #242424",
"x 	c #262626",
"y 	c #232323",
"z 	c #202020",
"A 	c #1B1B1B",
"B 	c #1E1D1D",
"C 	c #424242",
"D 	c #2D2D2D",
"E 	c #B6B7B7",
"F 	c #3F3F3F",
"G 	c #4A4A4A",
"H 	c #494949",
"I 	c #585858",
"J 	c #565656",
"K 	c #636363",
"L 	c #696969",
"M 	c #6D6D6D",
"N 	c #717171",
"O 	c #727272",
"P 	c #6E6E6E",
"Q 	c #646464",
"R 	c #B2B3B4",
"S 	c #E9EAEA",
"T 	c #EEEFEF",
"U 	c #EAEBEC",
"V 	c #E8E9EA",
"W 	c #E6E6E7",
"X 	c #E3E4E5",
"Y 	c #E1E2E3",
"Z 	c #DFE0E1",
"` 	c #DCDEDF",
" .	c #DADCDD",
"..	c #D8DADA",
"+.	c #D7D9DA",
"@.	c #D1D3D4",
"#.	c #BFC0C1",
"$.	c #AEB0B0",
"                                ",
"                                ",
". . + @ # $ % & * = - ; > - , ' ",
") ! ~ { { { { ] ] ^ ^ / ( ! _ ' ",
": < [ } | 1 1 2 3 4 5 6 7 < < ' ",
"8 < 9 0 a b c d e f g < < < < 8 ",
"h < i b j k l l m ( < < < < < 8 ",
"' < n o p l f q r s ~ ^ _ < < : ",
"t 7 u e v b n w x x y z A 7 7 : ",
"t B l C v l o f f j l 6 D B B ) ",
"t B l C v l o f f j l 6 D B B ) ",
"E D j F F i 2 G G H 3 C b D D ) ",
"' I J K L M a N O a P L Q I I . ",
"R S T U V W X Y Z `  ...+.@.#.$.",
"                                ",
"                                "};
